<svg width="142" height="106" viewBox="0 0 142 106" fill="none" xmlns="http://www.w3.org/2000/svg">
<path d="M16.6406 54.3706C17.1329 52.811 17.6585 51.2624 18.1119 49.6917C20.0034 43.1523 21.8908 36.6101 23.7365 30.0569C24.0429 28.9706 24.606 28.3413 25.6904 27.952C43.2171 21.6362 60.73 15.2803 78.2512 8.94932C82.9951 7.2351 87.6309 7.53737 92.0296 10.0217C102.614 15.9953 113.17 22.0213 123.734 28.0293C124.971 28.7332 125.376 29.5186 125.035 30.4613C124.685 31.426 123.92 31.7945 122.493 31.5723C115.594 30.4985 108.697 29.4054 101.799 28.3178C98.1409 27.7409 94.4952 27.077 90.8204 26.6353C89.6944 26.5001 88.3964 26.7416 87.3453 27.1957C64.9678 36.8516 42.6125 46.5642 20.2517 56.2657C20.0894 56.3361 19.9285 56.4064 19.7663 56.4755C18.148 57.1587 17.6474 57.0248 16.6393 55.6377C16.6406 55.2153 16.6406 54.793 16.6406 54.3706ZM113.632 26.5249C113.256 26.2627 113.07 26.1108 112.864 25.9935C105.359 21.7259 97.8594 17.45 90.3434 13.2004C86.8502 11.2253 83.2018 10.9865 79.4299 12.3515C62.3025 18.5514 45.1752 24.75 28.0409 30.9292C27.4085 31.1569 27.084 31.4785 26.9024 32.1272C25.6834 36.4886 24.4257 40.8377 23.1776 45.1909C22.5536 47.3688 21.924 49.5468 21.2487 51.8918C22.304 51.4418 23.1735 51.0761 24.0374 50.702C44.6579 41.7514 65.2784 32.8035 85.8948 23.8432C87.5852 23.1089 89.3241 22.739 91.1532 23.0012C93.5273 23.3408 95.893 23.741 98.2629 24.1123C103.312 24.9059 108.361 25.6982 113.632 26.5249Z" fill="#82A39B"/>
<path d="M67.0049 88.4134C63.477 88.1208 60.074 87.8226 56.6669 87.5866C56.4006 87.5687 56.0248 87.9261 55.8334 88.2008C53.96 90.8977 51.5 92.8949 48.5532 94.3165C47.3162 94.9128 46.3095 94.6754 45.8075 93.712C45.2777 92.6948 45.7659 91.8087 46.9501 91.0661C48.4922 90.1 49.9454 88.9889 51.4098 87.9027C51.7565 87.646 51.9978 87.2457 52.2987 86.8965C49.2313 85.9538 46.2887 85.0263 43.3239 84.1734C43.0507 84.0947 42.5709 84.419 42.306 84.6771C39.8016 87.1146 36.7633 88.5072 33.3769 89.1918C32.2038 89.4292 31.3551 88.8274 31.1471 87.7923C30.9571 86.8441 31.5381 86.027 32.6336 85.7095C32.8361 85.6516 33.0483 85.624 33.2521 85.5674C35.3752 84.9849 37.379 84.1623 39.233 82.6055C38.2859 82.1721 37.4456 81.7939 36.6108 81.4019C35.8134 81.0279 35.0146 80.6552 34.2339 80.2508C33.0219 79.6242 32.6267 78.6774 33.1287 77.6823C33.6349 76.6802 34.6388 76.4276 35.8536 77.0349C40.7543 79.4889 45.8699 81.3757 51.1796 82.7324C58.2255 84.5322 65.3505 85.3258 72.5587 83.8601C79.2316 82.5019 85.3206 79.6546 91.174 76.2744C96.897 72.9688 102.247 69.1346 107.295 64.8781C107.706 64.5303 108.305 64.0969 108.746 64.1645C109.358 64.257 110.065 64.6669 110.433 65.1596C110.904 65.7932 110.7 66.5992 110.1 67.1678C109.362 67.8676 108.576 68.5163 107.801 69.194C108.602 70.9358 109.884 72.2028 111.51 73.0172C113.008 73.7666 114.621 74.309 116.217 74.839C117.411 75.2351 118.094 76.0177 117.875 77.0239C117.639 78.1046 116.688 78.6305 115.404 78.3875C111.137 77.5815 107.501 75.2393 104.88 71.5721C104.658 71.7004 104.42 71.8164 104.204 71.9668C101.859 73.5927 99.5317 75.2448 97.166 76.8403C96.6293 77.2019 96.5073 77.5014 96.7181 78.1156C97.8593 81.4323 100.215 83.653 103.18 85.341C103.424 85.4804 103.679 85.6019 103.93 85.7302C105.145 86.3527 105.554 87.2816 105.049 88.2767C104.568 89.2277 103.564 89.5189 102.409 88.9779C99.6496 87.6846 97.252 85.9041 95.4825 83.4143C94.5936 82.1638 93.9183 80.7643 93.1708 79.471C90.2532 80.9009 87.2177 82.3763 84.2002 83.8877C83.9935 83.9912 83.7814 84.3666 83.8036 84.5943C84.0296 86.9296 84.5774 89.1835 86.0459 91.0744C86.5451 91.7176 87.2731 92.2131 87.9679 92.6713C88.8692 93.2676 89.245 94.2006 88.8082 95.0977C88.3978 95.941 87.434 96.3095 86.4688 95.9355C84.7493 95.2702 83.4014 94.0708 82.6235 92.4726C81.7263 90.6286 81.1397 88.6342 80.4394 86.6978C80.3104 86.3431 80.2813 85.9525 80.205 85.5757C77.91 86.1788 75.7037 86.9628 73.4295 87.2926C71.4604 87.5783 70.498 88.303 70.1832 90.3388C69.8767 92.3207 68.87 94.1495 67.3973 95.5697C66.5042 96.431 65.4226 97.1487 64.3202 97.7311C63.4243 98.2046 62.4051 97.6953 62.0099 96.8423C61.6036 95.9659 61.91 94.9362 62.8336 94.5139C65.5197 93.28 66.36 90.8743 67.0049 88.4134Z" fill="#82A39B"/>
<path d="M72.6793 47.0016C74.5556 47.2873 76.4415 47.5205 78.3039 47.8794C79.5422 48.1168 80.1108 49.0429 79.8501 50.0974C79.6005 51.1063 78.7088 51.6681 77.5467 51.3838C71.6185 49.929 66.0605 51.2554 60.687 53.6597C52.3251 57.4001 45.3818 63.11 38.9349 69.4755C37.9587 70.4403 37.0559 71.4782 36.0838 72.4471C35.2865 73.2435 34.2769 73.2794 33.5267 72.6045C32.7571 71.913 32.703 70.824 33.4865 69.9779C40.7321 62.1411 48.7723 55.3118 58.5057 50.6771C62.9695 48.5516 67.6455 47.1796 72.6793 47.0016Z" fill="#82A39B"/>
<path d="M85.5148 49.5785C87.3938 50.1609 89.2964 50.6799 91.149 51.3369C96.3506 53.1808 101.222 55.6942 105.834 58.7072C107.023 59.4842 107.357 60.489 106.755 61.4345C106.158 62.373 105.072 62.5028 103.883 61.7367C98.2588 58.1178 92.3167 55.1877 85.8254 53.4389C85.4524 53.3382 85.0641 53.2747 84.7091 53.1284C83.798 52.753 83.4555 52.0339 83.6178 51.0912C83.7661 50.2313 84.5302 49.6861 85.5148 49.5785Z" fill="#82A39B"/>
</svg>
