<svg width="110" height="83" viewBox="0 0 110 83" fill="none" xmlns="http://www.w3.org/2000/svg">
<path d="M30.511 3.77175C32.1578 4.06462 33.7992 4.40289 35.4535 4.64281C42.1856 5.61763 48.9479 6.2585 55.7552 6.28876C60.2357 6.30822 63.6163 8.24164 65.9087 12.0934C66.6456 13.3308 67.2891 14.6244 67.9852 15.8867C68.9208 17.5813 70.0315 19.1473 71.2959 20.509C72.1649 19.7168 72.9416 18.8987 73.8278 18.2276C75.277 17.1296 76.9506 16.5643 78.7617 16.3828C79.1452 16.3439 79.5695 16.1839 79.8735 15.9483C81.6063 14.5974 83.31 13.2098 85.0201 11.8286C85.4928 11.4471 85.9719 11.1218 86.61 11.419C87.1954 11.6913 87.3329 12.2068 87.4027 12.8012C87.6734 15.1118 87.9678 17.4203 88.2664 19.7276C88.2965 19.96 88.376 20.2118 88.5092 20.3998C90.9917 23.909 91.5417 27.8309 90.8413 31.9647C89.6242 39.144 86.3317 45.1604 80.6609 49.7665C76.6273 53.0422 71.9555 54.9043 66.8948 55.824C65.3641 56.1028 63.8032 56.2066 62.2649 56.4443C61.9523 56.493 61.6022 56.7231 61.397 56.9739C57.5738 61.6686 53.4123 66.0315 48.8437 69.9956C44.8465 73.4636 40.5969 76.5632 35.7844 78.81C35.4492 78.9667 35.0249 79.0888 34.6758 79.0272C33.7627 78.8684 33.4351 77.8147 34.0291 77.003C34.983 75.7018 35.9777 74.4309 36.9392 73.134C41.5024 66.9836 45.7112 60.5965 49.5784 53.9803C49.6633 53.8354 49.746 53.6906 49.9243 53.3837C49.5236 53.4593 49.2583 53.5037 48.9962 53.5599C42.263 55.0048 35.4664 55.9688 28.5731 55.9148C25.734 55.8921 22.897 55.5062 20.0621 55.2469C19.177 55.1658 18.7526 54.6719 18.7677 53.9468C18.7827 53.254 19.192 52.8423 20.0514 52.7169C26.9393 51.714 33.666 50.068 40.1317 47.4537C42.495 46.4984 44.7853 45.3593 47.0905 44.1899C46.1431 43.789 45.4008 43.1568 44.2567 43.294C40.961 43.6896 37.935 42.8628 35.2419 40.858C35.0045 40.6819 34.6146 40.6365 34.3009 40.6516C31.176 40.8083 28.1542 40.4171 25.4439 38.7398C24.4857 38.1465 23.6414 37.3305 22.8562 36.5081C22.593 36.2325 22.4963 35.5452 22.651 35.1896C22.8057 34.8319 23.3621 34.4418 23.7531 34.4299C28.0479 34.2969 31.9634 32.8099 35.7178 30.9218C39.8514 28.8436 43.8722 26.5395 47.9402 24.3326C48.0004 24.3002 48.0455 24.2375 48.1508 24.1402C47.9059 24.0387 47.6953 23.9554 47.488 23.8657C44.8046 22.704 42.9344 20.7532 41.8107 18.0406C41.6625 17.6818 41.3263 17.3198 40.9825 17.1371C38.4968 15.8111 36.4751 13.99 34.9153 11.633C34.6736 11.2677 34.3084 10.937 33.9271 10.7198C32.4983 9.90272 31.1395 8.99707 30.0921 7.70776C29.6506 7.16415 29.2617 6.55354 28.9652 5.91807C28.484 4.88706 28.6806 4.37371 29.6313 3.77066C29.9256 3.77174 30.2188 3.77175 30.511 3.77175ZM64.2286 53.6333C64.4907 53.6333 64.5885 53.6463 64.683 53.6312C65.2846 53.5382 65.8883 53.4572 66.4855 53.3405C77.6993 51.1552 84.9664 44.6525 87.8861 33.4507C88.5951 30.7316 88.9421 27.9866 88.1257 25.1864C86.3898 19.2316 80.9445 17.8915 77.0795 19.3937C73.8461 20.6506 72.2036 23.2508 71.4678 26.4984C71.1616 27.8493 71.08 29.2521 70.8856 30.7111C71.1885 30.6841 71.5075 30.7024 71.7986 30.6214C72.6634 30.3804 73.5185 30.1026 74.3768 29.8346C75.1427 29.5947 75.813 29.8832 76.0579 30.5652C76.2899 31.2104 75.9988 31.8545 75.2834 32.1679C73.2381 33.0649 71.1036 33.4356 68.8725 33.267C65.8077 33.0357 63.1501 31.7291 60.6783 30.0302C59.1948 29.0111 57.7908 27.8569 56.4395 26.6627C54.4371 24.8924 52.3714 24.6936 50.0769 26.038C48.0799 27.2084 46.0335 28.2946 44.0129 29.4239C39.7772 31.7907 35.519 34.1111 30.8816 35.6089C29.6313 36.0131 28.3508 36.3201 27.0596 36.6778C28.0339 37.3532 29.9288 37.9055 31.582 38.0449C35.6415 38.3864 39.4732 37.417 43.1804 35.9018C45.2268 35.0653 47.1937 34.03 49.1928 33.0757C50.0801 32.6521 50.9481 32.959 51.1264 33.7944C51.2843 34.5325 50.9491 35.0394 50.3003 35.3312C47.6169 36.5384 44.9432 37.7672 42.2329 38.9106C41.1437 39.3699 39.9717 39.6303 38.8373 39.9816C38.8309 40.0453 38.8233 40.1102 38.8169 40.1739C39.8772 40.3977 40.9277 40.7057 41.9987 40.8299C44.8572 41.1596 47.474 40.1718 50.0618 39.1462C52.3596 38.2362 54.4833 36.9955 56.4867 35.5419C57.2806 34.9659 58.1045 35.0848 58.4987 35.7916C58.8414 36.4044 58.6728 37.1101 57.953 37.551C56.1247 38.6685 54.2792 39.7579 52.4133 40.8105C51.6409 41.246 50.8009 41.5573 49.9909 41.9258C50.3314 42.0674 50.6569 42.0804 50.9814 42.0652C52.5583 41.9863 54.0504 41.5756 55.4716 40.8905C57.6168 39.8573 59.5687 38.5356 61.3443 36.9458C62.0877 36.2812 62.8074 36.2444 63.3359 36.8248C63.8924 37.4354 63.7871 38.1714 62.96 38.8382C61.8589 39.7254 60.717 40.5619 59.5912 41.4189C59.4107 41.5562 59.2249 41.6848 58.9069 41.915C61.2971 42.3365 63.3864 41.9896 65.1514 40.6008C66.4437 39.5839 67.5716 38.3443 68.7081 37.1425C69.3859 36.426 70.0369 36.199 70.6524 36.6778C71.2841 37.1695 71.3109 37.885 70.6943 38.6782C70.2195 39.2888 69.7136 39.8735 69.1399 40.5673C70.3957 40.4657 71.4291 40.1102 72.195 39.2651C72.7955 38.6026 73.2757 37.8277 73.7859 37.0863C74.2231 36.4498 74.8763 36.2401 75.4864 36.5816C76.1009 36.9253 76.2932 37.5942 75.9655 38.2956C75.8076 38.6339 75.6229 38.9592 75.4349 39.3223C77.5414 39.3494 79.0099 38.3778 79.518 36.4595C80.285 33.5599 80.0605 30.8516 77.8196 28.5442C76.5521 27.2387 76.2964 25.5884 76.9721 23.9025C77.637 22.2425 78.983 21.4352 80.7383 21.3358C81.6986 21.2817 82.3228 21.7626 82.3732 22.53C82.4227 23.267 81.8974 23.7836 80.9531 23.8668C80.2098 23.9317 79.5137 24.0905 79.2516 24.8849C78.9852 25.69 79.1785 26.4087 79.7983 27.0334C80.8296 28.073 81.631 29.2932 81.9747 30.7219C83.1241 35.4998 82.1509 39.7287 78.2826 42.9103C76.0493 44.7476 73.5765 46.2963 71.1659 47.9076C68.7038 49.5482 66.3985 51.366 64.2286 53.6333ZM58.2065 24.8687C58.7791 25.3647 59.2894 25.8186 59.8125 26.2563C61.904 28.0082 64.1523 29.492 66.7874 30.2907C68.1151 30.6927 68.4245 30.4787 68.6329 29.0716C68.6544 28.9268 68.6598 28.7787 68.6651 28.6318C68.7242 26.8237 69.1174 25.088 69.8522 23.441C70.0434 23.013 69.9939 22.7504 69.6749 22.4186C67.8133 20.4863 66.3287 18.287 65.1471 15.8727C64.7496 15.061 64.3103 14.2678 63.8408 13.4961C62.4121 11.1488 60.5548 9.35911 57.6984 8.98518C56.7832 8.86522 55.8551 8.8101 54.9313 8.79497C48.7878 8.69555 42.6787 8.16059 36.5911 7.35436C35.3762 7.19333 34.1612 7.02258 32.8582 6.84534C32.9581 6.9934 32.986 7.06257 33.0365 7.10363C33.2439 7.27331 33.4512 7.44514 33.6714 7.59861C36.3634 9.47908 39.4324 10.402 42.5767 11.1229C46.1957 11.9529 49.8781 12.2944 53.5713 12.5592C54.4575 12.6229 54.9592 13.1427 54.9216 13.8712C54.8829 14.6277 54.2706 15.154 53.3779 15.0556C50.2842 14.7141 47.1872 14.3769 44.1063 13.9403C42.5423 13.7188 41.0083 13.2865 39.3143 12.918C40.6495 14.0862 42.0095 14.9238 43.5102 15.5279C47.1281 16.9826 50.8879 17.6494 54.7819 17.591C55.6102 17.5791 56.1333 18.0687 56.1569 18.7896C56.1816 19.5417 55.6413 20.1156 54.7948 20.0789C53.046 20.0021 51.2907 19.9254 49.5548 19.7147C48.0917 19.5374 46.6512 19.1721 45.1054 18.8706C46.3375 20.4712 47.8629 21.486 49.7148 22.0145C52.0867 22.6921 54.5069 22.8099 56.9519 22.611C57.5652 22.5613 58.1335 22.6153 58.4837 23.2119C58.836 23.8106 58.6223 24.3402 58.2065 24.8687ZM39.7139 73.7652C40.1801 73.4572 40.5507 73.2226 40.9095 72.973C47.6147 68.315 53.3854 62.6369 58.5954 56.3762C61.2928 53.1351 63.9858 49.9081 67.447 47.4602C69.676 45.8845 71.9952 44.4385 74.2672 42.9244C74.698 42.6369 75.0986 42.3051 75.6035 41.9258C74.8054 41.8458 74.1587 41.7648 73.5099 41.728C73.309 41.7161 73.0694 41.7767 72.9019 41.8858C71.0531 43.093 69.0551 43.2897 66.9399 42.8563C66.6714 42.8012 66.318 42.8768 66.0784 43.0195C62.9213 44.8946 59.6686 45.1367 56.2848 43.696C56.0108 43.5793 55.6381 43.6009 55.3362 43.669C54.1761 43.9273 53.0245 44.2234 51.873 44.5196C51.4809 44.6201 51.0598 44.6968 50.7214 44.9011C46.3687 47.5316 41.8107 49.7244 36.9939 51.3454C34.8842 52.0555 32.7357 52.652 30.6378 53.2897C31.2265 53.2897 31.8517 53.3232 32.4726 53.2843C39.0221 52.8704 45.4889 51.9042 51.8611 50.3166C52.4724 50.1642 53.0374 50.1847 53.4338 50.75C53.8033 51.2774 53.697 51.8112 53.3833 52.3322C51.1425 56.0607 48.9769 59.8389 46.6426 63.5069C44.4512 66.949 42.0825 70.2733 39.7139 73.7652ZM83.0178 16.6627C83.8825 16.9966 84.6495 17.2927 85.4885 17.617C85.3725 16.7124 85.2672 15.9008 85.1458 14.9573C84.411 15.5452 83.759 16.0683 83.0178 16.6627Z" fill="#70b9a7"/>
<path d="M75.2211 68.5366C74.163 68.2664 73.1962 68.0265 72.2326 67.7693C71.4044 67.5477 70.993 66.9198 71.1853 66.2044C71.3765 65.4911 72.0253 65.1626 72.8675 65.3647C73.9288 65.6197 74.9869 65.8845 76.132 66.1655C76.132 65.0307 76.1181 63.9597 76.1363 62.8887C76.1514 62.0025 76.7153 61.4654 77.5038 61.5356C78.173 61.5962 78.6038 62.0771 78.6167 62.8401C78.6339 63.9154 78.621 64.9918 78.621 66.1633C79.7393 65.8877 80.7898 65.6262 81.8415 65.3701C82.7492 65.1485 83.4152 65.4652 83.586 66.1925C83.7676 66.9663 83.3766 67.5402 82.4764 67.7833C81.5225 68.0405 80.5643 68.2783 79.519 68.5485C80.3569 69.6746 81.1615 70.7143 81.9146 71.7917C82.1391 72.1138 82.399 72.5872 82.3174 72.9071C82.2132 73.3123 81.8415 73.7403 81.4698 73.9618C80.9682 74.2623 80.4644 73.9705 80.1281 73.5393C79.3772 72.5764 78.6597 71.5864 77.9271 70.6084C77.767 70.3954 77.6026 70.1858 77.3792 69.894C76.6058 70.9261 75.8678 71.9128 75.1287 72.8984C74.9676 73.1135 74.8183 73.3393 74.6453 73.5436C74.1458 74.1315 73.4637 74.2277 72.8933 73.803C72.3454 73.3945 72.224 72.652 72.6623 72.0382C73.3713 71.0439 74.1179 70.0756 74.8462 69.0943C74.9611 68.9408 75.0621 68.7765 75.2211 68.5366Z" fill="#70b9a7"/>
<path d="M24.9745 20.9478C24.2473 21.9204 23.548 22.8542 22.8497 23.789C22.6596 24.043 22.4802 24.3067 22.2782 24.5509C21.7594 25.1778 21.0482 25.2837 20.4789 24.8308C19.9235 24.3899 19.8247 23.7123 20.2812 23.0692C20.9451 22.1333 21.6477 21.2244 22.3298 20.3015C22.4845 20.0929 22.6241 19.8735 22.8239 19.5817C21.8496 19.3397 20.9516 19.1484 20.0761 18.8857C19.6969 18.7723 19.1974 18.5972 19.0459 18.2989C18.8558 17.925 18.8375 17.35 18.9804 16.9458C19.1641 16.4238 19.7012 16.2412 20.2619 16.3687C21.2094 16.586 22.1515 16.828 23.0968 17.0561C23.2794 17.1004 23.4663 17.1274 23.7499 17.1814C23.7499 16.1202 23.7445 15.1248 23.751 14.1295C23.7574 13.0974 24.1785 12.5754 24.9885 12.5775C25.7834 12.5797 26.2346 13.1309 26.2432 14.1359C26.2518 15.1345 26.2453 16.1331 26.2453 17.2095C27.4216 16.921 28.4937 16.5892 29.5904 16.4238C30.018 16.3601 30.6324 16.5406 30.9332 16.841C31.5724 17.4797 31.1856 18.5064 30.2543 18.7831C29.2564 19.0781 28.2412 19.3137 27.124 19.6033C27.7653 20.4669 28.3712 21.2817 28.9771 22.0955C29.1812 22.37 29.3928 22.6391 29.5915 22.9169C30.12 23.655 30.0642 24.4191 29.4551 24.8622C28.8578 25.2966 28.1563 25.154 27.6192 24.4515C26.892 23.5015 26.1884 22.5332 25.4719 21.5746C25.3269 21.3833 25.1743 21.1996 24.9745 20.9478Z" fill="#70b9a7"/>
</svg>
