<svg width="149" height="112" viewBox="0 0 149 112" fill="none" xmlns="http://www.w3.org/2000/svg">
<path d="M23.1358 46.6681C27.9754 39.2233 32.8135 31.777 37.6531 24.3322C41.6924 18.1183 47.3177 14.2668 54.6455 13.0885C61.6619 11.9597 68.0016 13.682 73.6633 17.9608C73.8976 18.1387 74.1348 18.3122 74.2105 18.3691C76.3101 17.1645 78.2192 15.8535 80.2941 14.9114C90.989 10.0639 103.702 13.5027 110.328 23.2035C115.45 30.7037 120.283 38.4022 125.23 46.022C125.959 47.1435 125.803 48.2226 124.745 48.9197C121.922 50.782 119.67 53.2481 117.416 55.7126C113.041 60.496 108.728 65.3376 103.648 69.4108C103.34 69.6587 103.14 70.1006 102.999 70.4914C100.6 77.1341 97.4684 83.3758 92.9868 88.8751C90.5219 91.9012 87.715 94.5466 84.3509 96.5649C83.5302 97.0578 82.7154 97.1643 81.9209 96.581C81.2036 96.0545 80.9169 95.2962 81.2094 94.4576C81.3636 94.0172 81.6852 93.5272 82.0708 93.2924C87.7718 89.8318 91.5841 84.6824 94.7765 79.0022C97.7362 73.7347 99.83 68.1114 101.263 62.2431C102.887 55.5945 98.0257 49.3062 91.1985 49.2901C80.0191 49.2639 68.8398 49.2683 57.6589 49.2887C50.7604 49.3018 45.8655 55.5829 47.5418 62.2766C49.7404 71.0572 53.2341 79.2312 58.9438 86.342C61.0929 89.0181 63.5447 91.3616 66.5145 93.1218C67.357 93.6206 67.8852 94.3133 67.7004 95.3443C67.5447 96.2178 66.9947 96.8639 66.1246 96.9339C65.5469 96.9806 64.8689 96.7778 64.3567 96.4774C60.5269 94.2258 57.4698 91.1151 54.7997 87.6035C50.9263 82.5095 48.1122 76.8497 45.915 70.8545C45.656 70.1487 45.1613 69.4341 44.5822 68.9587C39.9157 65.1262 35.8895 60.6608 31.8269 56.2245C29.4144 53.5893 27.0485 50.9016 24.0234 48.9154C23.6552 48.6747 23.4239 48.2241 23.1299 47.8712C23.1358 47.4701 23.1358 47.0691 23.1358 46.6681ZM29.0041 45.0595C34.3515 44.3916 39.0921 42.6343 43.3759 39.7074C50.0256 35.1618 57.2559 32.0629 65.2181 30.7504C77.5891 28.7087 89.3273 30.5797 100.348 36.6085C103.065 38.0945 105.605 39.9043 108.304 41.4254C111.823 43.4058 115.631 44.5637 119.743 45.0479C119.622 44.8072 119.564 44.6541 119.476 44.5199C115.38 38.2199 111.398 31.8397 107.155 25.6404C100.4 15.7631 86.7867 13.8322 77.4247 21.2639C75.1912 23.0372 73.5964 23.0168 71.3294 21.2318C67.7834 18.4376 63.7426 16.8714 59.2392 16.7941C51.504 16.6599 45.4276 19.8726 41.1467 26.3374C37.2195 32.2685 33.3824 38.2608 29.5075 44.2268C29.365 44.447 29.2355 44.676 29.0041 45.0595ZM39.0383 46.7454C41.5687 47.5722 44.2213 48.4545 46.8899 49.2887C47.1576 49.3718 47.6073 49.2668 47.8197 49.0772C50.7721 46.4333 54.225 45.2462 58.1697 45.2579C68.882 45.2899 79.5942 45.3045 90.3065 45.2506C94.3924 45.2301 97.9879 46.3545 101.032 49.1326C101.211 49.296 101.579 49.4214 101.793 49.3529C104.507 48.491 107.207 47.5897 109.934 46.6914C109.826 46.6287 109.688 46.5485 109.55 46.4697C106.938 45.0026 104.275 43.6187 101.725 42.0539C86.2541 32.5631 70.1348 31.3045 53.5614 38.6049C48.473 40.8464 43.8037 44.0416 39.0383 46.7454ZM44.8484 52.952C42.2686 51.5549 33.0812 49.436 31.3395 49.8385C35.29 54.056 39.2144 58.2458 43.1373 62.4356C43.2289 62.3729 43.3221 62.3116 43.4137 62.2489C42.8448 58.9997 43.3526 55.9212 44.8484 52.952ZM105.384 62.262C105.495 62.3043 105.604 62.3481 105.714 62.3904C109.63 58.1976 113.544 54.0035 117.656 49.6008C112.76 50.1608 108.317 51.1976 103.928 52.882C105.425 55.8979 105.965 58.9924 105.384 62.262Z" fill="#82A39B"/>
<path d="M72.4003 81.6083C72.7961 80.325 72.0889 79.6775 70.6746 79.0388C67.018 77.3894 65.2457 73.2448 66.2759 69.3933C67.3076 65.5375 70.8754 62.9446 74.8798 63.1415C78.842 63.3369 82.0679 66.3323 82.7314 70.4346C83.3367 74.1708 81.0493 78.0471 77.3505 79.4092C76.591 79.6892 76.3101 80.0334 76.3858 80.8296C76.4615 81.6244 76.4222 82.4338 76.396 83.2344C76.3567 84.4477 75.52 85.3198 74.4185 85.3315C73.3185 85.3446 72.4571 84.474 72.4032 83.2738C72.3829 82.8071 72.4003 82.3375 72.4003 81.6083ZM74.3909 75.969C76.8034 75.9719 78.7852 74.0061 78.8012 71.5925C78.8172 69.1367 76.8092 67.1271 74.3574 67.1475C71.9507 67.1665 69.9893 69.16 69.998 71.5765C70.0053 73.9886 71.9827 75.9646 74.3909 75.969Z" fill="#82A39B"/>
<path d="M76.3946 97.472C76.3713 98.5541 75.4764 99.4393 74.4055 99.4437C73.2952 99.4481 72.38 98.506 72.4033 97.386C72.4265 96.2543 73.3563 95.3822 74.4913 95.4289C75.5753 95.4741 76.4193 96.3797 76.3946 97.472Z" fill="#82A39B"/>
</svg>
