<svg width="134" height="100" viewBox="0 0 134 100" fill="none" xmlns="http://www.w3.org/2000/svg">
<path d="M51.4775 96.3542C49.5761 95.9857 47.6773 95.5703 46.0965 94.3828C44.8206 93.4245 43.584 92.4036 42.4011 91.332C31.9323 81.8385 25.2388 70.1536 22.2867 56.4049C21.4321 52.4232 21.1299 48.3242 20.5711 44.2799C20.5305 43.9857 20.4664 43.694 20.4128 43.401C20.4128 40.8112 20.4128 38.2201 20.4128 35.6302C20.5946 33.78 20.7111 31.9206 20.9702 30.082C21.5329 26.0951 21.9517 22.0703 23.5508 18.306C23.6921 17.974 23.8426 17.6445 24.0088 17.3242C24.4406 16.4922 25.2218 16.1784 25.9507 16.5326C26.6364 16.8659 26.8445 17.638 26.5461 18.4766C25.973 20.0872 25.2545 21.6758 24.9143 23.3372C21.8561 38.2734 22.7146 52.9154 28.5509 67.1172C32.563 76.8776 38.826 85.0013 47.0335 91.6393C49.529 93.6575 52.4092 94.0677 55.4189 92.9909C65.6521 89.332 75.5347 84.8997 85.0023 79.5664C85.264 79.4193 85.5284 79.2578 85.8123 79.1693C86.5111 78.9531 87.0738 79.1849 87.4324 79.8099C87.7988 80.4505 87.6378 81.0365 87.1066 81.5143C86.9076 81.6927 86.6551 81.8151 86.4195 81.9492C76.8302 87.3776 66.7946 91.8346 56.4344 95.5846C55.4805 95.9297 54.4637 96.1016 53.4757 96.3542C52.8096 96.3542 52.1435 96.3542 51.4775 96.3542Z" fill="#82A39B"/>
<path d="M62.6162 44.1446C66.7344 50.2344 67.4659 56.6745 64.7401 63.6146C66.5211 63.2344 68.2183 62.8815 69.9116 62.5104C76.1104 61.1472 82.3079 59.7774 88.5054 58.4115C89.9711 58.0886 90.4382 57.5769 90.573 56.099C90.7405 54.2696 91.0336 52.4375 91.0048 50.6107C90.9813 49.1641 90.7012 47.6797 90.2694 46.293C89.606 44.1615 89.7682 42.2162 90.9237 40.3164C91.4092 39.5196 91.7992 38.6667 92.265 37.8581C93.766 35.2526 96.7182 34.1315 99.5199 35.2123C102.985 36.5482 106.431 37.9401 109.849 39.3933C112.58 40.5534 113.871 43.2761 113.254 46.1381C112.65 48.9297 112.251 51.7735 111.507 54.5261C109.697 61.2123 106.127 66.875 100.878 71.4193C98.1877 73.7474 95.3114 75.8646 92.5189 78.0755C92.4011 78.1693 92.2755 78.2539 92.1486 78.336C91.3438 78.8607 90.539 78.7761 90.0574 78.1159C89.5745 77.4545 89.7499 76.6719 90.5259 76.0873C92.3108 74.7422 94.1219 73.431 95.8807 72.0534C100.5 68.4375 104.436 64.2617 106.962 58.8815C108.687 55.2071 109.501 51.3086 110.153 47.3542C110.261 46.7019 110.417 46.0586 110.545 45.4102C110.835 43.948 110.214 42.5547 108.834 41.9779C105.381 40.5313 101.908 39.1289 98.418 37.7735C97.0257 37.2318 95.5025 37.8425 94.7409 39.1459C94.1036 40.2383 93.427 41.3295 92.9782 42.5C92.706 43.2097 92.5647 44.1771 92.829 44.8477C94.453 48.9558 93.7019 53.1224 93.2098 57.2552C92.9533 59.4128 91.3817 60.6341 89.2631 61.099C85.2784 61.974 81.2925 62.8451 77.3065 63.7175C72.4346 64.7839 67.5614 65.8412 62.6934 66.9245C61.9828 67.0834 61.3626 67.0742 60.9006 66.4519C60.4309 65.819 60.6533 65.2227 61.0132 64.6094C64.8003 58.1485 64.3684 51.0404 59.8459 45.1706C59.0594 44.1511 59.1039 43.642 60.0815 42.6875C64.4587 38.4128 66.6153 33.2201 66.5433 27.125C66.4242 17.0612 58.5295 8.17452 48.4926 6.87895C41.1304 5.92842 34.8963 8.21488 29.8294 13.6172C29.2719 14.2123 28.6451 14.7266 27.8783 14.2305C27.487 13.9766 27.2619 13.3412 27.152 12.8373C27.0944 12.5756 27.3902 12.1693 27.6244 11.9206C34.3244 4.79952 42.528 2.18103 51.9381 4.82816C61.2605 7.45056 67.0327 13.8477 68.8948 23.3412C70.384 30.9349 68.251 37.6966 63.1423 43.5248C62.9669 43.724 62.7968 43.9323 62.6162 44.1446Z" fill="#82A39B"/>
<path d="M38.5813 36.556C38.5813 36.1146 38.5813 35.6667 38.5813 35.0885C37.2727 35.1706 36.0675 34.9127 35.2103 33.8086C34.3689 32.7252 34.5652 31.4596 34.5966 30.2409C34.645 28.3502 35.7364 27.5247 38.7331 27.0937C38.7331 25.7122 38.6964 24.3073 38.7409 22.9049C38.8417 19.7344 41.9941 17.582 44.9751 18.6732C46.8071 19.3437 47.9207 20.6875 48.0555 22.6497C48.1563 24.1146 48.0751 25.5911 48.0751 27.1836C49.5172 27.125 50.7695 27.3372 51.6384 28.5013C52.4576 29.6002 52.2443 30.8633 52.2116 32.0794C52.1619 33.9349 51.0731 34.7591 48.2452 35.1758C48.2452 35.6367 48.2452 36.1054 48.2452 36.5989C49.0749 36.6849 49.8901 36.7083 50.6818 36.8594C57.3805 38.1419 60.5408 45.8489 56.6464 51.4336C54.4414 54.5963 51.6842 57.2656 48.8119 59.8164C48.3643 60.2148 48.134 60.6093 48.1981 61.2057C48.5672 64.5911 47.8671 67.7565 46.2889 70.7708C45.6909 71.9127 45.2721 73.1484 44.7814 74.3463C44.5328 74.9531 44.1363 75.3711 43.4427 75.3854C42.7033 75.3997 42.2951 74.9596 42.0294 74.3216C40.9695 71.7643 39.8454 69.2317 38.8692 66.6432C38.5747 65.8633 38.5224 64.9062 38.6454 64.0729C38.9961 61.6771 38.0879 60.0651 36.2742 58.4427C34.0457 56.4492 32.1273 54.0638 30.3267 51.6601C28.0353 48.6015 27.7985 45.164 29.569 41.7786C31.3186 38.4323 34.2223 36.7461 38.0395 36.6784C38.1599 36.6758 38.2816 36.6693 38.402 36.6588C38.4269 36.6562 38.4504 36.6302 38.5813 36.556ZM38.6101 39.4518C35.8515 39.3502 33.7264 40.3164 32.3393 42.539C30.9705 44.7331 30.7389 47.0794 32.1796 49.3581C32.9177 50.526 33.7722 51.6328 34.6699 52.6862C37.0057 55.4245 39.5575 57.944 42.4613 60.1015C43.0946 60.5716 43.5278 60.6406 44.1546 60.0677C45.3781 58.9466 46.7888 58.0169 47.9416 56.8333C50.1689 54.5469 52.3726 52.2213 54.3904 49.7526C55.8233 47.9987 55.8809 45.8515 55.1075 43.7435C54.0619 40.8945 50.8768 38.97 48.206 39.5729C48.312 41.1614 47.7571 42.8568 49.0461 44.2708C49.2136 44.4544 49.2803 44.763 49.3157 45.0234C49.4047 45.6979 49.1285 46.2096 48.4886 46.47C47.8514 46.7291 47.2939 46.5599 46.8699 46.0299C46.6841 45.7969 46.5689 45.5091 46.4027 45.2578C45.0745 43.2396 42.1681 43.082 40.6515 44.9518C40.4251 45.2305 40.2681 45.5651 40.0521 45.8541C39.5771 46.487 38.8273 46.6627 38.2123 46.2578C37.5854 45.8437 37.3394 45.2578 37.6613 44.5403C37.8328 44.1588 38.084 43.8138 38.2842 43.444C38.4085 43.2135 38.5891 42.97 38.597 42.7278C38.6297 41.6784 38.6101 40.6263 38.6101 39.4518ZM43.3891 32.3151C45.1112 32.3151 46.8333 32.2721 48.5541 32.3307C49.6638 32.3685 49.4348 31.6471 49.4766 31.0078C49.5211 30.3281 49.3824 29.9661 48.5567 29.9765C45.1439 30.0182 41.7298 30.0208 38.3182 29.9752C37.4546 29.9635 37.308 30.3255 37.3394 31.0521C37.3695 31.737 37.2517 32.3763 38.3182 32.3333C40.0037 32.2669 41.697 32.3164 43.3891 32.3151ZM45.3781 35.1302C44.0381 35.1302 42.7792 35.1302 41.5086 35.1302C41.5086 37.1393 41.5086 39.0989 41.5086 40.9674C42.8407 40.9674 44.0918 40.9674 45.3781 40.9674C45.3781 39.0612 45.3781 37.1419 45.3781 35.1302ZM45.3022 27.1458C45.3022 25.6784 45.3428 24.2734 45.2878 22.8724C45.2499 21.9297 44.4241 21.2161 43.4898 21.1758C42.5267 21.1354 41.595 21.8229 41.5374 22.8034C41.4536 24.2292 41.5165 25.664 41.5165 27.1445C42.7832 27.1458 43.9779 27.1458 45.3022 27.1458ZM45.2525 62.6211C44.0774 64.1263 42.7989 63.819 41.5622 62.8489C40.8674 65.72 42.5057 67.862 43.4165 70.4375C44.3352 67.8151 45.9984 65.6198 45.2525 62.6211Z" fill="#82A39B"/>
</svg>
