<svg width="133" height="100" viewBox="0 0 133 100" fill="none" xmlns="http://www.w3.org/2000/svg">
<path d="M100.794 4.42712C102.328 4.85942 103.814 5.38155 105.049 6.45707C108.431 9.39978 109.002 14.1706 106.361 17.9987C103.524 22.112 100.644 26.1954 97.7835 30.2917C96.7873 31.7188 95.7924 33.1472 94.7469 34.6472C95.934 35.4857 97.0861 36.2969 98.2329 37.1133C98.8707 37.5664 99.2486 38.2292 98.9746 38.9493C98.7784 39.4662 98.2745 39.9102 97.8134 40.2657C97.5783 40.4467 97.1367 40.3607 96.8627 40.3881C97.1328 41.7787 97.377 43.1732 97.6926 44.5508C97.7563 44.8282 98.0394 45.1537 98.3044 45.2722C102.641 47.2019 104.863 50.5209 104.88 55.2839C104.897 60.0209 104.891 64.7578 104.882 69.4948C104.871 74.5847 101.399 78.0677 96.299 78.0795C89.2411 78.0951 82.182 78.0938 75.1242 78.0677C74.4137 78.0651 73.9085 78.267 73.4279 78.7852C72.4824 79.8034 71.4758 80.7631 70.4939 81.7461C67.2767 84.9688 63.7607 85.2709 60.0006 82.5821C59.7889 82.7839 59.5564 82.9935 59.3369 83.2162C54.8612 87.7344 49.8879 91.6107 44.4342 94.8737C43.6484 95.3438 42.8886 95.6537 42.056 95.056C41.2702 94.4922 41.2403 93.7149 41.4066 92.8334C42.7717 85.6094 45.1147 78.724 48.5112 72.2058C48.8229 71.6068 48.7969 71.267 48.2995 70.7878C46.5733 69.1289 44.9199 67.3933 43.1951 65.7318C42.8963 65.444 42.3937 65.2357 41.9794 65.2266C39.7649 65.1771 37.5504 65.2149 35.3346 65.2006C29.2392 65.1641 24.792 60.6836 24.7829 54.569C24.7751 50.0092 24.7816 45.4506 24.7816 40.8907C24.7816 36.0261 26.7935 33.2683 31.4485 31.8217C31.3251 31.5873 31.2082 31.3633 31.0874 31.142C29.8574 28.8698 29.8925 26.6094 31.2069 24.3959C31.4537 23.9818 31.4667 23.7253 31.2186 23.2995C29.9275 21.0873 29.8003 18.7943 31.0952 16.5547C32.3862 14.3217 34.3929 13.2305 36.9776 13.3021C37.4659 13.3151 37.6841 13.1602 37.9205 12.7409C39.1843 10.5026 41.1209 9.25655 43.6912 9.26176C46.259 9.26567 48.1826 10.5 49.4697 12.7409C49.6048 12.9766 49.9152 13.2748 50.1386 13.2696C53.2168 13.2136 55.3794 14.6107 56.7419 17.3868C59.2824 15.2813 62.1008 13.7605 65.3076 13.0899C66.7143 12.7956 68.1638 12.6589 69.6016 12.5743C71.0225 12.4896 71.7186 13.2513 71.6615 14.7084C71.4017 21.3633 68.6235 26.7084 63.3126 30.7188C62.8464 31.0717 62.3528 31.3894 61.8242 31.7565C62.8373 32.7032 63.8205 33.6211 64.8842 34.6146C66.7078 32.6511 68.7223 30.9506 71.1524 29.7982C73.5552 28.6602 76.0827 28.056 78.8154 27.8204C77.8218 27.1198 76.8295 26.4193 75.8359 25.7201C74.4826 24.7683 74.1293 23.75 74.8202 22.793C75.4943 21.8594 76.5139 21.8607 77.8491 22.7943C78.8154 23.4701 79.7805 24.1472 80.804 24.8646C81.0144 24.5847 81.2092 24.3399 81.3884 24.0834C84.6913 19.3581 88.0553 14.6732 91.2673 9.88676C93.0428 7.24744 95.0495 5.06514 98.3122 4.42712C99.1395 4.42712 99.9669 4.42712 100.794 4.42712ZM101.229 63.0469C101.288 62.8568 101.332 62.78 101.332 62.7032C101.331 59.9193 101.371 57.1355 101.305 54.3542C101.27 52.8607 100.638 51.5456 99.6409 50.4284C98.1381 48.7487 96.2249 48.1302 94.0117 48.1315C74.0747 48.1472 54.1364 48.1315 34.1994 48.1563C32.2109 48.1589 30.3146 47.961 28.5911 46.8868C28.5378 46.8542 28.4378 46.8959 28.3274 46.9063C28.3274 49.3868 28.3261 51.8425 28.3274 54.2995C28.3313 58.862 31.1147 61.6498 35.6775 61.6511C42.6184 61.655 49.5593 61.6498 56.5016 61.6537C57.8147 61.655 58.6044 62.3138 58.6226 63.3959C58.642 64.5352 57.8666 65.1993 56.4847 65.2032C54.1507 65.2097 51.818 65.2045 49.484 65.2058C48.971 65.2058 48.4579 65.2058 47.7631 65.2058C48.1111 65.5782 48.3021 65.7943 48.506 65.9974C52.9753 70.4792 57.4445 74.9597 61.9151 79.4388C63.8075 81.336 65.8843 81.3321 67.8014 79.4141C72.2745 74.9375 76.7425 70.4545 81.2092 65.9714C81.4066 65.7735 81.5858 65.556 81.9028 65.2045C81.4378 65.2045 81.1546 65.2045 80.8728 65.2045C78.2141 65.2032 75.5567 65.2162 72.898 65.194C71.8239 65.1849 71.0562 64.4219 71.0459 63.444C71.0368 62.474 71.8109 61.7123 72.8707 61.655C73.1058 61.642 73.3435 61.6511 73.5799 61.6511C80.5507 61.6511 87.5215 61.6667 94.4923 61.642C96.8315 61.6342 99.1655 61.5717 101.229 63.0469ZM94.0299 44.5586C94.0442 44.4219 94.0585 44.3633 94.0546 44.3047C94.0468 44.1862 94.039 44.0677 94.0143 43.9519C92.7843 38.1901 89.4775 34.1498 83.8718 32.323C78.2829 30.5013 73.2097 31.7149 68.8378 35.681C67.9404 36.4948 67.126 37.3972 66.2558 38.2422C65.3102 39.1615 64.3997 39.1706 63.4555 38.2657C62.6879 37.5287 61.9476 36.7618 61.1955 36.0079C59.7149 34.5235 58.0056 33.3907 56.0652 32.5964C55.608 32.4089 55.2937 32.4206 54.8936 32.7865C53.639 33.931 52.1128 34.4493 50.4283 34.3985C49.8957 34.3829 49.6542 34.556 49.4048 34.9987C48.341 36.8933 46.7253 38.056 44.5679 38.3542C42.5587 38.6329 40.7728 38.0482 39.1999 36.6615C37.2036 38.9597 36.0061 41.5443 35.5943 44.5586C55.1118 44.5586 74.541 44.5586 94.0299 44.5586ZM36.862 16.78C35.4891 16.8464 34.3929 17.5756 33.9435 18.7826C33.498 19.9779 33.8695 21.3099 34.9073 22.2305C36.184 23.3646 36.1853 24.3112 34.9112 25.4636C33.7253 26.5365 33.4266 28.1342 34.1773 29.3985C34.9202 30.6498 36.4386 31.1407 37.9738 30.6276C39.5246 30.1081 40.387 30.6185 40.7039 32.2422C41.004 33.7826 42.169 34.8269 43.6198 34.8568C45.0784 34.8868 46.2902 33.9011 46.6604 32.3815C47.1279 30.461 47.7059 30.1289 49.6009 30.6888C51.0231 31.1094 52.5259 30.5521 53.2181 29.3477C53.9377 28.0951 53.6442 26.5144 52.5012 25.4831C51.1387 24.2539 51.1335 23.4297 52.4778 22.1954C53.2909 21.448 53.7117 20.5274 53.5701 19.4206C53.3155 17.4362 51.3829 16.3672 49.358 17.0599C47.8994 17.5586 47.0162 17.0599 46.7006 15.5638C46.6642 15.3907 46.624 15.2175 46.5733 15.0469C46.1889 13.7474 44.994 12.8112 43.7029 12.7969C42.4301 12.7826 41.1793 13.7175 40.7857 14.9922C40.7078 15.2448 40.6857 15.5144 40.6234 15.7722C40.3312 16.9844 39.4051 17.5157 38.2141 17.1641C37.7621 17.0313 37.3114 16.9076 36.862 16.78ZM83.7367 26.931C86.4487 28.8334 89.119 30.7071 91.8336 32.6107C92.9935 30.9519 94.0923 29.3789 95.1898 27.8073C97.9641 23.8347 100.755 19.8724 103.507 15.8842C105.097 13.5808 104.688 10.6849 102.606 9.05082C100.327 7.26176 97.1757 7.73181 95.4495 10.1771C92.2466 14.7162 89.0801 19.28 85.898 23.8334C85.1901 24.8464 84.4822 25.862 83.7367 26.931ZM77.7192 74.53C78.2751 74.53 78.5908 74.53 78.9077 74.53C84.5991 74.53 90.2919 74.53 95.9834 74.5287C96.3366 74.5287 96.6925 74.53 97.0432 74.4974C99.624 74.2552 101.412 72.2318 101.331 69.655C101.254 67.2123 99.2291 65.237 96.7081 65.2123C93.6701 65.1836 90.6322 65.1967 87.5955 65.2175C87.302 65.2188 86.9253 65.3086 86.7292 65.5026C83.7783 68.4323 80.8494 71.3855 77.7192 74.53ZM67.9923 16.1862C63.0217 16.9037 59.1603 19.1954 56.2639 23.1394C55.895 23.642 55.8859 23.9922 56.2249 24.53C56.9328 25.6537 57.2107 26.9284 57.1354 28.2592C57.0692 29.4206 57.7108 29.8503 58.7914 29.3177C62.0709 27.698 64.5673 25.2696 66.2545 22.0157C67.1844 20.2214 67.7676 18.3243 67.9923 16.1862ZM57.3939 80.1368C55.3898 78.1537 53.4298 76.2149 51.4335 74.2396C48.9541 79.1237 47.0214 84.2852 45.6797 89.8881C50.0568 86.9597 53.9104 83.7331 57.3939 80.1368ZM32.0083 44.4245C32.4304 41.0782 33.6565 38.0964 35.6632 35.3308C34.4514 35.3308 33.4175 35.2631 32.3953 35.3451C30.212 35.5196 28.4352 37.4961 28.3339 39.7696C28.2365 41.9636 29.7912 43.9844 32.0083 44.4245Z" fill="#82A39B"/>
<path d="M66.5974 63.4518C66.5857 64.4284 65.8181 65.1927 64.8453 65.194C63.8919 65.1953 63.0866 64.4076 63.071 63.4557C63.0542 62.4883 63.9218 61.6289 64.8868 61.6563C65.8454 61.6836 66.6078 62.4844 66.5974 63.4518Z" fill="#82A39B"/>
<path d="M41.934 23.832C41.9366 22.8685 42.7198 22.069 43.6679 22.0612C44.6018 22.0534 45.4304 22.8594 45.4538 23.8008C45.4798 24.7826 44.6511 25.6068 43.6523 25.5938C42.673 25.5807 41.9314 24.8203 41.934 23.832Z" fill="#82A39B"/>
<path d="M99.4564 11.1718C100.414 11.1536 101.227 11.9192 101.263 12.8737C101.299 13.8411 100.455 14.7135 99.4863 14.7109C98.5304 14.707 97.7563 13.9218 97.7485 12.9479C97.7407 11.9622 98.4836 11.1901 99.4564 11.1718Z" fill="#82A39B"/>
</svg>
